<?xml version="1.0" encoding="utf-8"?>
<!-- Generator: Adobe Illustrator 17.0.0, SVG Export Plug-In . SVG Version: 6.00 Build 0)  -->
<!DOCTYPE svg PUBLIC "-//W3C//DTD SVG 1.1//EN" "http://www.w3.org/Graphics/SVG/1.1/DTD/svg11.dtd">
<svg version="1.1" id="Layer_1" xmlns="http://www.w3.org/2000/svg" xmlns:xlink="http://www.w3.org/1999/xlink" x="0px" y="0px"
	 width="200px" height="100px" viewBox="0 0 200 100" style="enable-background:new 0 0 200 100;" xml:space="preserve">
<g>
	<g>
		<path style="fill:#4B4A4B;" d="M6.315,93.128h1.589c0,0.672,0.224,1.18,0.674,1.524c0.398,0.301,0.94,0.452,1.627,0.452
			c0.653,0,1.148-0.146,1.487-0.439c0.288-0.25,0.433-0.568,0.433-0.956c0-0.568-0.25-0.947-0.75-1.137
			c-0.068-0.026-0.97-0.28-2.708-0.762c-1.339-0.371-2.009-1.15-2.009-2.339c0-0.869,0.348-1.554,1.042-2.054
			c0.619-0.439,1.377-0.659,2.276-0.659c0.991,0,1.809,0.25,2.453,0.75c0.687,0.542,1.03,1.274,1.03,2.195h-1.589
			c-0.068-1.085-0.721-1.627-1.958-1.627c-0.44,0-0.809,0.082-1.106,0.245c-0.373,0.215-0.559,0.534-0.559,0.956
			c0,0.594,0.36,0.988,1.081,1.182c0.72,0.194,1.593,0.433,2.619,0.717c0.568,0.173,1.013,0.491,1.335,0.956
			c0.288,0.422,0.432,0.888,0.432,1.396c0,0.965-0.377,1.705-1.131,2.222c-0.653,0.448-1.479,0.672-2.479,0.672
			c-1.102,0-1.988-0.263-2.657-0.788C6.709,95.057,6.332,94.222,6.315,93.128z"/>
		<path style="fill:#4B4A4B;" d="M19.225,96.202v-9.224h1.589v9.224H19.225z"/>
		<path style="fill:#4B4A4B;" d="M26.801,96.202v-9.224h2.237l2.504,7.222h0.025l2.441-7.222h2.212v9.224h-1.513v-7.118h-0.025
			l-2.517,7.118h-1.31l-2.517-7.118h-0.025v7.118H26.801z"/>
		<path style="fill:#4B4A4B;" d="M42.211,96.202v-9.224h4.004c1.152,0,1.992,0.332,2.517,0.995c0.381,0.482,0.572,1.103,0.572,1.86
			c0,0.749-0.191,1.36-0.572,1.834c-0.525,0.663-1.365,0.995-2.517,0.995H43.8v3.539H42.211z M43.8,88.297v3.048h2.327
			c0.424,0,0.78-0.107,1.068-0.322c0.347-0.268,0.521-0.668,0.521-1.202c0-1.016-0.521-1.523-1.563-1.523H43.8z"/>
		<path style="fill:#4B4A4B;" d="M54.57,96.202v-9.224h1.589v7.828h4.615v1.396H54.57z"/>
		<path style="fill:#4B4A4B;" d="M65.887,96.202v-9.224h1.589v9.224H65.887z"/>
		<path style="fill:#4B4A4B;" d="M73.476,96.202v-9.224h6.267v1.396h-4.678v2.415h4.106v1.318h-4.106v4.095H73.476z"/>
		<path style="fill:#4B4A4B;" d="M87.832,96.202v-3.617l-3.407-5.606h1.843l2.403,4.134l2.364-4.134h1.78l-3.394,5.606v3.617H87.832
			z"/>
		<path style="fill:#4B4A4B;" d="M104.88,93.128h1.589c0,0.672,0.225,1.18,0.674,1.524c0.398,0.301,0.94,0.452,1.627,0.452
			c0.652,0,1.148-0.146,1.487-0.439c0.288-0.25,0.433-0.568,0.433-0.956c0-0.568-0.25-0.947-0.75-1.137
			c-0.068-0.026-0.971-0.28-2.708-0.762c-1.339-0.371-2.009-1.15-2.009-2.339c0-0.869,0.348-1.554,1.043-2.054
			c0.618-0.439,1.377-0.659,2.275-0.659c0.991,0,1.81,0.25,2.453,0.75c0.687,0.542,1.03,1.274,1.03,2.195h-1.59
			c-0.067-1.085-0.72-1.627-1.957-1.627c-0.441,0-0.81,0.082-1.106,0.245c-0.373,0.215-0.56,0.534-0.56,0.956
			c0,0.594,0.36,0.988,1.081,1.182c0.72,0.194,1.593,0.433,2.619,0.717c0.567,0.173,1.013,0.491,1.334,0.956
			c0.288,0.422,0.433,0.888,0.433,1.396c0,0.965-0.377,1.705-1.132,2.222c-0.652,0.448-1.479,0.672-2.479,0.672
			c-1.102,0-1.987-0.263-2.657-0.788C105.273,95.057,104.896,94.222,104.88,93.128z"/>
		<path style="fill:#4B4A4B;" d="M117.796,96.202v-9.224h6.535v1.396h-4.945v2.415h4.576v1.318h-4.576v2.699h5.034v1.396H117.796z"
			/>
		<path style="fill:#4B4A4B;" d="M137.449,89.911h-1.589c-0.305-1.223-1.06-1.834-2.263-1.834c-0.907,0-1.61,0.366-2.11,1.098
			c-0.433,0.638-0.648,1.442-0.648,2.416c0,0.973,0.216,1.778,0.648,2.415c0.5,0.732,1.203,1.099,2.11,1.099
			c0.678,0,1.225-0.237,1.64-0.711c0.382-0.431,0.606-0.999,0.674-1.705h1.551c-0.067,1.111-0.455,2.011-1.163,2.7
			c-0.708,0.688-1.608,1.033-2.701,1.033c-1.322,0-2.386-0.479-3.191-1.434c-0.771-0.904-1.156-2.037-1.156-3.397
			c0-1.37,0.385-2.507,1.156-3.411c0.806-0.947,1.869-1.421,3.191-1.421c1.042,0,1.915,0.276,2.619,0.827
			C136.945,88.163,137.356,88.938,137.449,89.911z"/>
		<path style="fill:#4B4A4B;" d="M142.886,92.882v-5.903h1.589v5.374c0,0.836,0.098,1.434,0.293,1.796
			c0.313,0.586,0.928,0.878,1.843,0.878c0.916,0,1.53-0.292,1.844-0.878c0.195-0.362,0.293-0.96,0.293-1.796v-5.374h1.589v5.903
			c0,1.154-0.339,2.041-1.018,2.661c-0.652,0.586-1.555,0.879-2.708,0.879c-1.152,0-2.051-0.293-2.694-0.879
			C143.229,94.923,142.886,94.036,142.886,92.882z"/>
		<path style="fill:#4B4A4B;" d="M156.264,96.202v-9.224h4.335c0.983,0,1.729,0.218,2.238,0.652
			c0.508,0.436,0.763,1.049,0.763,1.841c0,1.197-0.5,1.973-1.5,2.325v0.026c0.897,0.129,1.348,0.779,1.348,1.95
			c0,1.258,0.165,2.067,0.495,2.429h-1.703c-0.161-0.267-0.242-0.719-0.242-1.356c0-0.887-0.118-1.507-0.355-1.86
			c-0.263-0.388-0.746-0.581-1.449-0.581h-2.339v3.798H156.264z M157.854,88.297v2.88h2.605c1.034,0,1.551-0.49,1.551-1.473
			c0-0.938-0.525-1.407-1.576-1.407H157.854z"/>
		<path style="fill:#4B4A4B;" d="M169.348,96.202v-9.224h1.59v9.224H169.348z"/>
		<path style="fill:#4B4A4B;" d="M176.044,88.374v-1.396h7.349v1.396h-2.887v7.828h-1.589v-7.828H176.044z"/>
		<path style="fill:#4B4A4B;" d="M191.374,96.202v-3.617l-3.407-5.606h1.843l2.403,4.134l2.364-4.134h1.78l-3.395,5.606v3.617
			H191.374z"/>
	</g>
	<g>
		<path style="fill:#219FD3;" d="M39.923,52.404c0,13.919-6.348,20.454-17.123,20.454c-9.522,0-16.371-5.517-16.371-16.72V14.044
			c0-1.528,1.169-2.716,2.673-2.716s2.673,1.188,2.673,2.716v23.509c1.921-2.716,6.014-5.517,11.36-5.517
			C33.91,32.036,39.923,38.486,39.923,52.404z M11.775,56.139c0,8.063,4.594,11.797,11.025,11.797
			c7.685,0,11.777-4.922,11.777-15.531c0-10.438-4.176-15.446-11.777-15.446c-7.852,0-11.025,7.468-11.025,7.468V56.139z"/>
		<path style="fill:#219FD3;" d="M48.567,41.457c-0.835,0.934-1.42,1.188-2.171,1.188c-1.336,0-2.422-1.103-2.422-2.461
			c0-0.594,0.167-1.019,0.417-1.443c2.339-3.734,6.849-6.705,13.866-6.705c9.689,0,15.035,5.771,15.035,14.428v23.339
			c0,1.443-1.169,2.631-2.589,2.631s-2.589-1.188-2.589-2.631v-3.055c-2.088,3.988-6.933,6.11-11.944,6.11
			c-8.854,0-14.45-4.328-14.45-12.137c0-7.469,5.596-11.966,14.617-11.966h11.777v-2.292c0-5.771-3.759-9.336-9.856-9.336
			C53.83,37.128,51.157,38.486,48.567,41.457z M68.113,57.072v-3.564H56.335c-5.429,0-9.188,2.292-9.188,7.214
			c0,4.413,3.007,7.214,9.522,7.214C62.517,67.936,68.113,64.286,68.113,57.072z"/>
		<path style="fill:#219FD3;" d="M84.024,14.044v48.46c0,3.395,1.086,4.838,3.341,4.838c1.336,0,2.505,1.104,2.505,2.546
			s-1.169,2.546-2.505,2.546c-5.597,0-8.687-3.395-8.687-9.93v-48.46c0-1.443,1.253-2.716,2.673-2.716
			C82.854,11.328,84.024,12.601,84.024,14.044z"/>
		<path style="fill:#219FD3;" d="M124.142,52.404c0,13.919-6.683,20.454-17.541,20.454c-10.775,0-17.541-6.535-17.541-20.454
			c0-13.918,6.766-20.368,17.541-20.368C117.459,32.036,124.142,38.486,124.142,52.404z M118.712,52.404
			c0-10.693-4.427-15.446-12.111-15.446c-7.684,0-12.111,4.752-12.111,15.446c0,10.863,4.427,15.531,12.111,15.531
			C114.285,67.936,118.712,63.268,118.712,52.404z"/>
		<path style="fill:#219FD3;" d="M161.31,52.404c0,13.919-6.349,20.454-17.123,20.454c-9.522,0-16.371-5.517-16.371-16.72V14.044
			c0-1.528,1.169-2.716,2.673-2.716c1.503,0,2.673,1.188,2.673,2.716v23.509c1.921-2.716,6.014-5.517,11.359-5.517
			C155.295,32.036,161.31,38.486,161.31,52.404z M133.161,56.139c0,8.063,4.594,11.797,11.025,11.797
			c7.685,0,11.777-4.922,11.777-15.531c0-10.438-4.177-15.446-11.777-15.446c-7.852,0-11.025,7.468-11.025,7.468V56.139z"/>
		<path style="fill:#219FD3;" d="M169.954,41.457c-0.836,0.934-1.42,1.188-2.172,1.188c-1.337,0-2.423-1.103-2.423-2.461
			c0-0.594,0.167-1.019,0.418-1.443c2.339-3.734,6.85-6.705,13.865-6.705c9.689,0,15.035,5.771,15.035,14.428v23.339
			c0,1.443-1.17,2.631-2.59,2.631s-2.589-1.188-2.589-2.631v-3.055c-2.088,3.988-6.933,6.11-11.944,6.11
			c-8.854,0-14.45-4.328-14.45-12.137c0-7.469,5.597-11.966,14.617-11.966h11.777v-2.292c0-5.771-3.759-9.336-9.856-9.336
			C175.216,37.128,172.543,38.486,169.954,41.457z M189.499,57.072v-3.564h-11.777c-5.429,0-9.188,2.292-9.188,7.214
			c0,4.413,3.007,7.214,9.521,7.214C183.902,67.936,189.499,64.286,189.499,57.072z"/>
	</g>
</g>
</svg>
